<svg width="15" height="16" viewBox="0 0 15 16" fill="none" xmlns="http://www.w3.org/2000/svg">
<path d="M3.17953 15.88L3.35953 15.68L3.51953 15.58L3.69953 15.68C3.95953 15.48 4.17953 15.26 4.35953 15.04C4.53953 14.82 4.87953 14.24 5.41953 13.34L6.65953 11.24C7.31953 10.12 10.7795 5.41998 11.5595 4.53998C13.3595 2.47998 13.9595 1.85998 14.1995 1.53998C14.4195 1.25998 14.5595 1.03998 14.5595 0.87998C14.5595 0.77998 14.4995 0.61998 14.3995 0.61998C14.2995 0.61998 14.1395 0.69998 13.9395 0.839981L14.0995 0.47998L13.4195 0.87998L13.4595 0.59998C13.4195 0.71998 13.0995 1.03998 13.0195 1.03998C12.9595 1.03998 12.9395 0.97998 12.9395 0.87998V0.79998L12.3795 1.07998C12.3395 1.07998 12.2995 1.05998 12.2995 0.99998C12.2995 0.939981 12.3395 0.79998 12.3795 0.59998C12.0995 0.89998 11.6995 1.23998 11.1795 1.59998C10.4795 2.07998 7.75953 5.49998 6.65953 7.27998C5.91953 8.45998 5.61953 9.15998 5.49953 9.15998C5.45953 9.15998 5.43953 9.07998 5.41953 8.91998C5.05953 9.73998 4.73953 10.42 4.41953 10.92C4.09953 11.42 3.79953 11.68 3.57953 11.68C3.31953 11.68 3.09953 11.18 2.85953 10.16C2.75953 9.71998 2.53953 9.43998 2.21953 9.27998L2.15953 9.25998C2.09953 9.25998 2.01953 9.29998 1.91953 9.35998C1.81953 9.41998 1.75953 9.47998 1.71953 9.47998H1.69953L1.33953 9.35998L1.01953 9.83998C0.979531 9.89998 0.899531 9.91998 0.839531 9.91998C0.739531 9.91998 0.659531 9.89998 0.619531 9.83998C0.539531 10.12 0.439531 10.26 0.359531 10.26C0.299531 10.26 0.179531 10.22 0.0195312 10.12C0.159531 11.18 0.279531 11.88 0.399531 12.22C0.639531 12.88 1.17953 14.38 1.69953 15.38C1.75953 15.5 1.83953 15.64 1.89953 15.76C2.09953 15.64 2.15953 15.62 2.29953 15.62L2.45953 15.64C2.55953 15.68 2.61953 15.74 2.61953 15.84L3.07953 15.62C3.15953 15.62 3.17953 15.7 3.17953 15.88Z" fill="#343435"/>
</svg>
